<svg width="1420" height="219" viewBox="0 0 1420 219" fill="none" xmlns="http://www.w3.org/2000/svg">
<path d="M198.785 167.681V6.56242H237.028L272.782 107.714C276.177 118.123 285.907 118.123 289.301 107.714L325.281 6.56242H363.524V167.681H337.727V81.0118C337.727 71.9602 328.223 69.6973 324.15 80.7855L292.469 167.681H269.84L238.16 81.0118C234.539 70.3762 224.582 73.0917 224.582 81.2381V167.681H198.785Z" fill="black"/>
<path d="M426.617 171.075C393.805 171.075 371.402 148.446 371.402 111.561C371.402 75.8072 393.805 51.3678 426.617 51.3678C459.429 51.3678 481.605 75.8072 481.605 111.561C481.605 148.446 459.429 171.075 426.617 171.075ZM455.808 111.561C455.808 84.8588 443.136 70.6025 426.617 70.6025C410.098 70.6025 397.199 84.8588 397.199 111.561C397.199 138.037 410.098 151.841 426.617 151.841C443.136 151.841 455.808 138.037 455.808 111.561Z" fill="black"/>
<path d="M488.254 167.681V54.5359H512.92V60.1931C512.92 64.9452 518.577 65.3978 521.293 62.2298C523.556 59.7406 528.987 53.857 538.265 52.0467C542.111 51.1415 545.958 51.1415 550.258 51.5941V73.5443C547.316 73.0917 544.601 73.0917 541.433 73.318C523.556 75.8072 512.92 92.5526 512.92 113.598V167.681H488.254Z" fill="black"/>
<path d="M558.537 54.5359H583.203V61.3246C583.203 66.0767 585.465 67.887 588.407 67.887C590.896 67.887 592.48 66.303 594.517 64.4927C599.269 59.288 608.547 51.5941 624.387 51.5941C644.301 51.5941 660.82 64.0401 660.82 89.1583V167.681H636.154V98.4362C636.154 80.333 627.329 72.4128 615.336 72.4128C598.59 72.4128 583.429 88.0268 583.203 114.05V167.681H558.537V54.5359Z" fill="black"/>
<path d="M670.847 54.5359H695.739V167.681H670.847V54.5359ZM683.52 30.7754C675.373 30.7754 668.132 23.5342 668.132 15.3877C668.132 7.24128 675.373 0 683.52 0C691.666 0 698.681 7.24128 698.681 15.3877C698.681 23.5342 691.666 30.7754 683.52 30.7754Z" fill="black"/>
<path d="M705.97 54.5359H730.636V61.3246C730.636 66.0767 732.899 67.887 735.84 67.887C738.33 67.887 739.914 66.303 741.95 64.4927C746.702 59.288 755.98 51.5941 771.821 51.5941C791.734 51.5941 808.253 64.0401 808.253 89.1583V167.681H783.588V98.4362C783.588 80.333 774.762 72.4128 762.769 72.4128C746.024 72.4128 730.862 88.0268 730.636 114.05V167.681H705.97V54.5359Z" fill="black"/>
<path d="M867.838 218.144C842.041 218.144 819.865 204.114 817.376 176.28H842.041C844.53 191.668 854.94 198.23 867.612 198.23C887.299 198.23 898.84 185.784 898.84 163.834V158.403C898.84 154.33 894.088 152.519 890.467 155.009C884.357 161.118 875.758 165.192 864.67 165.192C836.384 165.192 815.565 143.242 815.565 107.714C815.565 73.318 836.61 51.3678 864.896 51.3678C880.963 51.3678 891.825 57.4777 898.84 67.2081V54.5359H923.732V158.856C923.732 199.135 900.65 218.144 867.838 218.144ZM871.233 147.089C887.525 147.089 899.293 135.321 899.293 108.167C899.293 80.333 888.657 69.2447 871.233 69.2447C854.713 69.2447 840.91 80.333 840.91 107.94C840.91 135.321 853.356 147.089 871.233 147.089Z" fill="black"/>
<path d="M1051.48 6.56242V27.6074H989.706C976.807 27.6074 964.588 34.6224 964.588 50.2364V50.4627C964.588 66.7556 974.545 73.318 989.706 73.318H1045.6V93.2315H965.04V167.681H939.47V6.56242H1051.48Z" fill="black"/>
<path d="M1103.54 171.075C1070.73 171.075 1048.33 148.446 1048.33 111.561C1048.33 75.8072 1070.73 51.3678 1103.54 51.3678C1136.35 51.3678 1158.53 75.8072 1158.53 111.561C1158.53 148.446 1136.35 171.075 1103.54 171.075ZM1132.73 111.561C1132.73 84.8588 1120.06 70.6025 1103.54 70.6025C1087.02 70.6025 1074.12 84.8588 1074.12 111.561C1074.12 138.037 1087.02 151.841 1103.54 151.841C1120.06 151.841 1132.73 138.037 1132.73 111.561Z" fill="black"/>
<path d="M1167.44 167.681V54.5359H1192.11V60.1931C1192.11 64.9452 1197.77 65.3978 1200.48 62.2298C1202.74 59.7406 1208.17 53.857 1217.45 52.0467C1221.3 51.1415 1225.15 51.1415 1229.45 51.5941V73.5443C1226.5 73.0917 1223.79 73.0917 1220.62 73.318C1202.74 75.8072 1192.11 92.5526 1192.11 113.598V167.681H1167.44Z" fill="black"/>
<path d="M1239.99 167.681V54.5359H1264.65V61.3246C1264.65 66.0767 1266.69 67.887 1269.86 67.887C1272.35 67.887 1273.93 66.303 1275.97 64.4927C1280.72 59.288 1290 51.5941 1305.61 51.5941C1315.8 51.5941 1325.07 55.2148 1332.09 61.7772C1336.16 65.1715 1339.1 66.0767 1342.27 66.0767C1348.15 66.0767 1352 63.1349 1356.3 59.9669C1364.67 54.3096 1371.92 51.5941 1380.74 51.5941C1404.95 51.5941 1419.89 65.1715 1419.89 93.0052V167.681H1395.22V98.4362C1395.22 80.333 1386.17 72.4128 1373.05 72.4128C1353.81 72.4128 1342.72 89.1583 1342.27 114.05V167.681H1317.61V98.4362C1317.61 80.333 1308.78 72.4128 1296.79 72.4128C1280.04 72.4128 1264.88 88.0268 1264.65 114.05V167.681H1239.99Z" fill="black"/>
<path d="M137.572 66.3388L144.727 67.5957L151.02 71.2149L155.69 76.7598L158.175 83.5617V90.8L155.69 97.6019L151.02 103.147L144.727 106.766L137.572 108.023L130.416 106.766L124.124 103.147L119.454 97.6019L116.968 90.8V83.5617L119.454 76.7598L124.124 71.2149L130.416 67.5957L137.572 66.3388Z" fill="black"/>
<path d="M159.761 66.3388L166.916 67.5957L173.209 71.2149L177.879 76.7598L180.364 83.5617V90.8L177.879 97.6019L173.209 103.147L166.916 106.766L159.761 108.023L152.605 106.766L146.313 103.147L141.643 97.6019L139.158 90.8V83.5617L141.643 76.7598L146.313 71.2149L152.605 67.5957L159.761 66.3388Z" fill="black"/>
<path d="M137.572 66.3388H159.761V108.023H137.572V66.3388Z" fill="black"/>
<path d="M20.6033 66.3388L27.7588 67.5957L34.0512 71.2149L38.7216 76.7598L41.2067 83.5617V90.8L38.7216 97.6019L34.0512 103.147L27.7588 106.766L20.6033 108.023L13.4479 106.766L7.15547 103.147L2.48507 97.6019L0 90.8V83.5617L2.48507 76.7598L7.15547 71.2149L13.4479 67.5957L20.6033 66.3388Z" fill="black"/>
<path d="M42.7925 66.3388L49.948 67.5957L56.2404 71.2149L60.9108 76.7598L63.3958 83.5617V90.8L60.9108 97.6019L56.2404 103.147L49.948 106.766L42.7925 108.023L35.637 106.766L29.3446 103.147L24.6742 97.6019L22.1891 90.8V83.5617L24.6742 76.7598L29.3446 71.2149L35.637 67.5957L42.7925 66.3388Z" fill="black"/>
<path d="M20.6033 66.3388H42.7925V108.023H20.6033V66.3388Z" fill="black"/>
<path d="M95.7713 35.8869L100.445 30.3369L106.739 26.7118L113.894 25.4487L121.047 26.7001L127.335 30.315L132 35.8573L134.479 42.6586L134.473 49.8986L131.983 56.7039L127.309 62.2539L121.015 65.879L113.86 67.1421L106.707 65.8907L100.419 62.2759L95.7541 56.7335L93.2752 49.9322L93.2812 42.6923L95.7713 35.8869Z" fill="black"/>
<path d="M106.866 16.7432L111.54 11.1932L117.834 7.5681L124.989 6.30505L132.142 7.55641L138.43 11.1713L143.094 16.7136L145.573 23.5149L145.567 30.7549L143.077 37.5602L138.403 43.1102L132.109 46.7353L124.954 47.9984L117.802 46.747L111.513 43.1322L106.849 37.5898L104.37 30.7885L104.376 23.5486L106.866 16.7432Z" fill="black"/>
<path d="M95.7587 35.8933L106.869 16.7307L143.09 37.5538L131.979 56.7164L95.7587 35.8933Z" fill="black"/>
<path d="M37.287 136.801L41.961 131.252L48.255 127.626L55.4099 126.363L62.5628 127.615L68.8508 131.23L73.5156 136.772L75.9946 143.573L75.9886 150.813L73.4985 157.619L68.8245 163.168L62.5305 166.794L55.3756 168.057L48.2227 166.805L41.9347 163.19L37.2699 157.648L34.791 150.847L34.7969 143.607L37.287 136.801Z" fill="black"/>
<path d="M48.3816 117.658L53.0556 112.108L59.3496 108.483L66.5045 107.22L73.6574 108.471L79.9454 112.086L84.6102 117.628L87.0891 124.429L87.0832 131.669L84.5931 138.475L79.9191 144.025L73.6251 147.65L66.4702 148.913L59.3173 147.662L53.0293 144.047L48.3645 138.504L45.8855 131.703L45.8915 124.463L48.3816 117.658Z" fill="black"/>
<path d="M37.2745 136.808L48.3851 117.645L84.6056 138.468L73.4949 157.631L37.2745 136.808Z" fill="black"/>
<path d="M48.3816 56.7039L45.8915 49.8986L45.8855 42.6586L48.3644 35.8573L53.0293 30.315L59.3173 26.7001L66.4702 25.4487L73.6251 26.7118L79.9191 30.3369L84.593 35.8869L87.0832 42.6923L87.0891 49.9322L84.6102 56.7335L79.9454 62.2759L73.6574 65.8907L66.5045 67.1421L59.3496 65.879L53.0556 62.2539L48.3816 56.7039Z" fill="black"/>
<path d="M37.287 37.5602L34.7969 30.7549L34.791 23.5149L37.2699 16.7136L41.9347 11.1713L48.2227 7.55641L55.3756 6.30505L62.5305 7.5681L68.8245 11.1932L73.4985 16.7432L75.9886 23.5486L75.9946 30.7885L73.5156 37.5898L68.8508 43.1322L62.5628 46.747L55.4099 47.9984L48.255 46.7353L41.961 43.1102L37.287 37.5602Z" fill="black"/>
<path d="M48.3851 56.7165L37.2745 37.5539L73.4949 16.7307L84.6056 35.8933L48.3851 56.7165Z" fill="black"/>
<path d="M106.866 157.619L104.376 150.813L104.37 143.573L106.849 136.772L111.514 131.23L117.802 127.615L124.954 126.363L132.109 127.626L138.403 131.252L143.077 136.801L145.567 143.607L145.573 150.847L143.094 157.648L138.43 163.19L132.142 166.805L124.989 168.057L117.834 166.794L111.54 163.168L106.866 157.619Z" fill="black"/>
<path d="M95.7713 138.475L93.2812 131.669L93.2752 124.429L95.7541 117.628L100.419 112.086L106.707 108.471L113.86 107.22L121.015 108.483L127.309 112.108L131.983 117.658L134.473 124.463L134.479 131.703L132 138.504L127.335 144.047L121.047 147.662L113.894 148.913L106.739 147.65L100.445 144.025L95.7713 138.475Z" fill="black"/>
<path d="M106.869 157.631L95.7587 138.468L131.979 117.645L143.09 136.808L106.869 157.631Z" fill="black"/>
</svg>
